<?xml version="1.0" encoding="UTF-8"?>
<svg id="Layer_1" data-name="Layer 1" xmlns="http://www.w3.org/2000/svg" viewBox="126 124 233 336">
  <defs>
    <style>
      .cls-1 {
        fill: #063f76;
      }

      .cls-2 {
        fill: #609dd6;
      }
    </style>
  </defs>
  <g>
    <path class="cls-1" d="m242.81,124.44v30.93c2.94,0,5.87.15,8.73.45,2.15.21,4.28.51,6.39.9,4.91.87,9.66,2.18,14.25,3.86h.01c1.3.48,2.59.98,3.87,1.54.64.28,1.27.55,1.91.83,1.26.57,2.51,1.17,3.73,1.8.62.32,1.24.65,1.85.97,1.21.66,2.4,1.34,3.57,2.06,5.87,3.58,11.28,7.84,16.12,12.68,15.48,15.47,25.08,36.86,25.08,60.45,0,47.16-38.36,85.52-85.52,85.52v30.93c64.21,0,116.44-52.23,116.44-116.44s-52.23-116.45-116.44-116.45Z"/>
    <path class="cls-1" d="m242.81,296.13s0,0,0,0h-.03c-30.49,0-55.21-24.74-55.21-55.24s24.71-55.24,55.21-55.24h.03s0,0,0,0v-30.28c-2.21,0-4.4.09-6.57.25-.73.05-1.45.12-2.16.19-2.15.22-4.28.52-6.39.9-.61.11-1.23.22-1.83.35-2.43.49-4.83,1.09-7.19,1.78-1.77.52-3.52,1.1-5.24,1.73-1.3.48-2.6.99-3.88,1.54-.64.27-1.27.54-1.9.83-1.27.58-2.52,1.17-3.74,1.8-.61.32-1.23.64-1.83.97-1.2.66-2.4,1.34-3.57,2.06-5.88,3.58-11.29,7.84-16.13,12.68-.97.97-1.91,1.96-2.84,2.98-1.38,1.51-2.71,3.08-3.98,4.7-.84,1.08-1.66,2.18-2.46,3.3-.39.55-.79,1.12-1.17,1.69-.77,1.14-1.51,2.29-2.23,3.48-1.07,1.76-2.08,3.56-3.03,5.41-.75,1.46-1.45,2.94-2.12,4.45-.66,1.51-1.28,3.04-1.87,4.59-3.48,9.31-5.37,19.37-5.37,29.87s1.9,20.56,5.37,29.86c.59,1.55,1.21,3.08,1.87,4.59.67,1.5,1.38,2.99,2.12,4.45h0c.95,1.85,1.96,3.65,3.03,5.41h0c.73,1.18,1.46,2.34,2.23,3.48.39.57.79,1.14,1.17,1.7.8,1.12,1.62,2.22,2.46,3.28,1.19,1.51,2.44,2.96,3.7,4.39l-38.51,57.66,14.53,9.93,14.53,9.93,37.88-56.72c10.72,4.85,22.61,7.56,35.12,7.56v-30.27Z"/>
  </g>
  <path class="cls-2" d="m242.81,185.65s0,0,0,0v25.44s-.01,0-.02,0c-16.45,0-29.79,13.34-29.79,29.79s13.34,29.79,29.79,29.79c0,0,.01,0,.02,0v25.45s0,0,0,0c30.52-.03,55.2-24.74,55.2-55.24s-24.68-55.21-55.2-55.24Z"/>
</svg>